<svg width="1000" height="500" xmlns="http://www.w3.org/2000/svg">
  <rect width="1000" height="500" fill="#1e1e1e"/>
  <text x="500" y="30" text-anchor="middle" fill="white" font-family="Arial" font-size="18" font-weight="bold">
    Chess.com Rapid Rating - AnishTheAnnihilator
  </text>
  <text x="500" y="55" text-anchor="middle" fill="#888" font-family="Arial" font-size="12">
    Last 30 Days (2 days tracked)
  </text>
  <line x1="60" y1="60" x2="940" y2="60" stroke="#333" stroke-width="1"/>
  <text x="50" y="65" text-anchor="end" fill="#888" font-family="Arial" font-size="12">1489</text>
  <line x1="60" y1="136" x2="940" y2="136" stroke="#333" stroke-width="1"/>
  <text x="50" y="141" text-anchor="end" fill="#888" font-family="Arial" font-size="12">1468</text>
  <line x1="60" y1="212" x2="940" y2="212" stroke="#333" stroke-width="1"/>
  <text x="50" y="217" text-anchor="end" fill="#888" font-family="Arial" font-size="12">1446</text>
  <line x1="60" y1="288" x2="940" y2="288" stroke="#333" stroke-width="1"/>
  <text x="50" y="293" text-anchor="end" fill="#888" font-family="Arial" font-size="12">1425</text>
  <line x1="60" y1="364" x2="940" y2="364" stroke="#333" stroke-width="1"/>
  <text x="50" y="369" text-anchor="end" fill="#888" font-family="Arial" font-size="12">1403</text>
  <line x1="60" y1="440" x2="940" y2="440" stroke="#333" stroke-width="1"/>
  <text x="50" y="445" text-anchor="end" fill="#888" font-family="Arial" font-size="12">1381</text>
  <polygon points="60,440 60,264 940,235 940,440" fill="#00ff88" fill-opacity="0.2"/>
  <polyline points="60,264 940,235" fill="none" stroke="#00ff88" stroke-width="3"/>
  <circle cx="60" cy="264" r="4" fill="#00ff88"/>
  <circle cx="940" cy="235" r="4" fill="#00ff88"/>
  <text x="990" y="420" text-anchor="end" fill="#00ff88" font-family="Arial" font-size="16" font-weight="bold">Current: 1439</text>
  <text x="990" y="440" text-anchor="end" fill="#888" font-family="Arial" font-size="12">High: 1439</text>
  <text x="990" y="455" text-anchor="end" fill="#888" font-family="Arial" font-size="12">Low: 1431</text>
  <text x="990" y="475" text-anchor="end" fill="#00ff88" font-family="Arial" font-size="12" font-weight="bold">Change: +8</text>
</svg>